<svg xmlns="http://www.w3.org/2000/svg" viewBox="0 0 512 512" fill="none">
  <rect width="512" height="512" fill="#d97706"/>
  <g transform="translate(153.6, 121.6) scale(0.8)">
    <path d="M128 0C57.3 0 0 57.3 0 128s57.3 128 128 128 128-57.3 128-128S198.7 0 128 0zm0 224c-53 0-96-43-96-96s43-96 96-96 96 43 96 96-43 96-96 96z" fill="white" opacity="0.9"/>
    <path d="M192 144H64c-8.8 0-16-7.2-16-16s7.2-16 16-16h128c8.8 0 16 7.2 16 16s-7.2 16-16 16z" fill="white" opacity="0.9"/>
    <path d="M160 192H64c-8.8 0-16-7.2-16-16s7.2-16 16-16h96c8.8 0 16 7.2 16 16s-7.2 16-16 16z" fill="white" opacity="0.7"/>
    <path d="M128 240H64c-8.8 0-16-7.2-16-16s7.2-16 16-16h64c8.8 0 16 7.2 16 16s-7.2 16-16 16z" fill="white" opacity="0.5"/>
  </g>
</svg>
